<svg xmlns="http://www.w3.org/2000/svg" viewBox="0 0 240 240" role="img" aria-labelledby="momandLogoTitle momandLogoDesc">
  <title id="momandLogoTitle">Momand Online Islamic Studies logo</title>
  <desc id="momandLogoDesc">A teal and gold logo with a crescent moon, star, open book, and lantern-inspired frame.</desc>
  <defs>
    <linearGradient id="bg" x1="0%" y1="0%" x2="100%" y2="100%">
      <stop offset="0%" stop-color="#0f8a7d"/>
      <stop offset="100%" stop-color="#0b5f57"/>
    </linearGradient>
    <linearGradient id="gold" x1="0%" y1="0%" x2="100%" y2="100%">
      <stop offset="0%" stop-color="#f8d778"/>
      <stop offset="100%" stop-color="#efb94b"/>
    </linearGradient>
  </defs>
  <rect x="18" y="18" width="204" height="204" rx="52" fill="url(#bg)"/>
  <path d="M164 66c-13-15-38-19-56-8-18 10-29 31-26 51 3 21 18 39 38 46-33-1-61-27-64-61-3-40 29-74 70-74 16 0 31 5 43 15-3 3-4 7-5 12z" fill="#eafaf7" opacity=".95"/>
  <path d="M169 58l7 14 15 2-11 10 3 15-14-8-14 8 3-15-11-10 15-2 7-14z" fill="url(#gold)"/>
  <path d="M58 140c18-13 40-20 62-20s44 7 62 20v37c-17-12-39-18-62-18s-45 6-62 18v-37z" fill="#fff6de"/>
  <path d="M120 121c-23 0-45 7-62 19v12c17-11 39-16 62-16s45 5 62 16v-12c-17-12-39-19-62-19z" fill="#f1c75d"/>
  <path d="M120 121v55" stroke="#0b5f57" stroke-width="6" stroke-linecap="round"/>
  <path d="M69 137c13 5 24 15 33 29" stroke="#0b5f57" stroke-width="5" stroke-linecap="round" fill="none" opacity=".72"/>
  <path d="M171 137c-13 5-24 15-33 29" stroke="#0b5f57" stroke-width="5" stroke-linecap="round" fill="none" opacity=".72"/>
  <path d="M99 95c7-3 14-4 21-4 8 0 15 1 22 4" stroke="#fff6de" stroke-width="5" stroke-linecap="round" fill="none" opacity=".82"/>
</svg>
